<?xml version="1.0" standalone="no"?>
<!DOCTYPE svg PUBLIC "-//W3C//DTD SVG 20010904//EN"
 "http://www.w3.org/TR/2001/REC-SVG-20010904/DTD/svg10.dtd">
<svg version="1.0" xmlns="http://www.w3.org/2000/svg"
 width="500.000000pt" height="500.000000pt" viewBox="0 0 500.000000 500.000000"
 preserveAspectRatio="xMidYMid meet">

<g transform="translate(0.000000,500.000000) scale(0.100000,-0.100000)"
fill="#000000" stroke="none">
<path d="M2614 3084 l168 -166 82 81 81 82 -40 36 c-48 42 -161 101 -230 119
-27 8 -90 14 -140 14 l-90 0 169 -166z"/>
<path d="M2295 3207 c-65 -28 -125 -64 -125 -74 0 -5 46 -55 103 -111 l103
-102 72 71 c40 40 72 75 72 78 0 11 -155 161 -165 161 -6 -1 -33 -11 -60 -23z"/>
<path d="M2067 3040 c-35 -42 -107 -168 -107 -189 0 -14 328 -15 350 -1 12 8
-7 31 -96 120 l-111 111 -36 -41z"/>
<path d="M1936 2764 c-11 -29 -7 -199 6 -212 13 -13 278 -18 278 -5 0 4 -23
31 -52 60 l-52 53 59 60 59 60 -146 0 c-124 0 -147 -2 -152 -16z"/>
<path d="M1964 2469 c-13 -22 112 -219 139 -219 7 0 59 48 117 107 l105 107
-35 8 c-46 10 -319 8 -326 -3z"/>
<path d="M2270 2295 l-105 -105 30 -25 c17 -13 61 -37 98 -51 l68 -28 79 79
c44 44 80 82 80 85 0 5 -140 150 -144 150 -1 0 -49 -47 -106 -105z"/>
<path d="M2618 2242 c-87 -87 -158 -161 -158 -165 0 -12 163 -7 215 7 72 19
176 73 227 117 l43 38 -80 80 c-44 45 -82 81 -85 80 -3 0 -76 -71 -162 -157z"/>
<path d="M1663 1898 c-21 -27 -23 -51 -8 -74 16 -25 58 -33 70 -14 3 6 -4 10
-18 10 -56 0 -59 61 -3 68 14 2 26 8 26 13 0 14 -56 11 -67 -3z"/>
<path d="M1827 1862 c-9 -26 -17 -49 -17 -52 0 -3 18 -5 39 -5 43 -1 42 -5 9
72 l-14 33 -17 -48z m27 -17 c3 -8 1 -15 -4 -15 -6 0 -10 7 -10 15 0 8 2 15 4
15 2 0 6 -7 10 -15z"/>
<path d="M2111 1896 c-15 -18 -5 -43 20 -49 10 -3 19 -11 19 -17 0 -8 -8 -10
-21 -7 -13 3 -19 1 -16 -6 2 -7 15 -12 28 -12 36 0 39 42 5 55 -34 12 -35 34
-1 26 19 -5 23 -3 19 9 -8 19 -38 20 -53 1z"/>
<path d="M2250 1855 c0 -52 2 -55 24 -55 31 0 56 25 56 55 0 30 -25 55 -56 55
-22 0 -24 -3 -24 -55z m55 0 c0 -20 -6 -31 -17 -33 -15 -3 -18 4 -18 33 0 29
3 36 18 33 11 -2 17 -13 17 -33z"/>
<path d="M2415 1855 c0 -42 3 -55 15 -55 12 0 15 13 15 55 0 42 -3 55 -15 55
-12 0 -15 -13 -15 -55z"/>
<path d="M2656 1894 c-19 -19 -21 -67 -3 -83 8 -6 30 -10 50 -9 34 1 37 4 37
30 0 22 -5 28 -22 28 -17 0 -19 -3 -10 -12 19 -19 14 -28 -17 -28 -33 0 -46
22 -31 51 7 12 21 19 41 19 18 0 28 4 24 10 -9 15 -52 12 -69 -6z"/>
<path d="M2820 1856 c0 -56 0 -56 31 -56 17 0 28 4 24 10 -3 6 -13 10 -21 10
-10 0 -14 12 -14 39 0 22 -4 43 -10 46 -6 4 -10 -15 -10 -49z"/>
<path d="M2960 1891 c-19 -36 14 -70 54 -55 21 8 21 60 0 68 -27 10 -43 7 -54
-13z m53 -7 c9 -10 -4 -34 -18 -34 -17 0 -28 17 -20 30 7 11 28 13 38 4z"/>
<path d="M3120 1854 l0 -55 33 3 c30 3 32 5 32 43 1 48 -10 65 -41 65 -22 0
-24 -4 -24 -56z m48 24 c-3 -7 -11 -13 -18 -13 -7 0 -15 6 -17 13 -3 7 4 12
17 12 13 0 20 -5 18 -12z m2 -49 c0 -5 -9 -9 -20 -9 -19 0 -26 11 -14 23 8 8
34 -3 34 -14z"/>
<path d="M3422 1858 c-2 -56 -1 -58 23 -58 14 0 25 5 25 10 0 6 -9 10 -19 10
-16 0 -21 8 -24 48 -3 46 -3 46 -5 -10z"/>
<path d="M1971 1863 c-7 -21 -14 -43 -17 -48 -2 -6 12 -10 36 -10 22 0 40 0
40 0 0 13 -34 95 -39 95 -4 0 -13 -17 -20 -37z m25 -30 c-10 -10 -19 5 -10 18
6 11 8 11 12 0 2 -7 1 -15 -2 -18z"/>
<path d="M3281 1863 c-7 -21 -14 -43 -17 -48 -2 -6 12 -10 36 -10 23 0 39 4
37 10 -2 5 -10 27 -18 48 -7 20 -16 37 -19 37 -4 0 -12 -17 -19 -37z m29 -23
c0 -5 -4 -10 -10 -10 -5 0 -10 5 -10 10 0 6 5 10 10 10 6 0 10 -4 10 -10z"/>
<path d="M2960 1810 c0 -5 16 -10 35 -10 19 0 35 5 35 10 0 6 -16 10 -35 10
-19 0 -35 -4 -35 -10z"/>
<path d="M1822 1690 c0 -14 2 -19 5 -12 2 6 2 18 0 25 -3 6 -5 1 -5 -13z"/>
<path d="M1886 1694 c-9 -23 -7 -31 4 -14 7 12 12 12 22 2 18 -18 28 -15 28
11 0 17 -2 19 -9 8 -8 -12 -13 -12 -24 -3 -12 10 -16 9 -21 -4z"/>
<path d="M1999 1693 c14 -27 26 -29 35 -7 9 23 7 31 -3 15 -8 -13 -12 -13 -27
0 -16 13 -16 12 -5 -8z"/>
<path d="M2090 1692 c0 -12 4 -22 9 -22 10 0 9 26 -2 36 -4 4 -7 -2 -7 -14z"/>
<path d="M2310 1690 c0 -11 5 -20 10 -20 6 0 10 9 10 20 0 11 -4 20 -10 20 -5
0 -10 -9 -10 -20z"/>
<path d="M2467 1695 c3 -8 9 -12 14 -9 12 7 11 11 -5 17 -10 4 -13 1 -9 -8z"/>
<path d="M2557 1703 c-10 -9 -9 -33 1 -33 4 0 8 9 9 20 2 21 0 24 -10 13z"/>
<path d="M2602 1690 c0 -14 2 -19 5 -12 2 6 2 18 0 25 -3 6 -5 1 -5 -13z"/>
<path d="M2672 1690 c0 -14 2 -19 5 -12 2 6 2 18 0 25 -3 6 -5 1 -5 -13z"/>
<path d="M2712 1690 c0 -14 2 -19 5 -12 2 6 2 18 0 25 -3 6 -5 1 -5 -13z"/>
<path d="M2782 1690 c0 -14 2 -19 5 -12 2 6 2 18 0 25 -3 6 -5 1 -5 -13z"/>
<path d="M2813 1695 c-9 -10 -9 -16 -2 -20 14 -9 22 0 17 18 -2 13 -5 13 -15
2z"/>
<path d="M2967 1690 c3 -11 7 -20 9 -20 2 0 4 9 4 20 0 11 -4 20 -9 20 -5 0
-7 -9 -4 -20z"/>
<path d="M3110 1688 c0 -13 4 -18 8 -13 4 6 17 10 30 9 13 -1 22 4 22 14 0 12
-2 12 -17 1 -13 -11 -17 -11 -20 -1 -7 20 -23 13 -23 -10z"/>
<path d="M3232 1690 c0 -14 2 -19 5 -12 2 6 2 18 0 25 -3 6 -5 1 -5 -13z"/>
</g>
</svg>
